<svg xmlns="http://www.w3.org/2000/svg" width="30" height="30" viewBox="0 0 30 30"><defs><style>.a{fill:#fff;opacity:0;}.b{fill:#9f1c34;}.c{fill:#b3b3b3;}.d{fill:#283574;}.e{fill:#bbbbbc;}.f{fill:#656666;}</style></defs><g transform="translate(-0.25 -0.274)"><rect class="a" width="30" height="30" transform="translate(0.25 0.274)"/><g transform="translate(10.84 14.977)"><path class="b" d="M9.553,4.777A4.777,4.777,0,1,1,4.777,0,4.777,4.777,0,0,1,9.553,4.777Z" transform="matrix(0.952, 0.306, -0.306, 0.952, 2.925, 0)"/><path class="c" d="M3.271,0C3.1,0,2.922,0,2.748.016L0,8.469a4.829,4.829,0,0,0,.964.616L3.891.077a4.916,4.916,0,0,0-.62-.071ZM5.2.492,2.267,9.5a4.917,4.917,0,0,0,1.143.06L6.16,1.108A4.83,4.83,0,0,0,5.2.492Z" transform="matrix(0.998, -0.07, 0.07, 0.998, 2.613, 1.447)"/></g><g transform="translate(20.521 2.089) rotate(45)"><path class="d" d="M4.47.108,2.875,0,1.4.452,0,1.473,4.568,16.421a5.987,5.987,0,0,0,2.388.08c.99-.3,1.394-.943,2.081-1.447L4.47.108Z" transform="translate(1.259 8.316)"/><path class="e" d="M1.493,0,0,.456,2.422,8.383l1.866,3.435L3.915,7.927Z" transform="translate(0.126 0.407)"/><path class="f" d="M1.565.4c0-.22-.35-.4-.782-.4S0,.178,0,.4.35.8.782.8,1.565.618,1.565.4Z" transform="translate(1.729 0.762) rotate(163.008)"/></g></g></svg>