<svg xmlns="http://www.w3.org/2000/svg" width="24" height="24" viewBox="0 0 24 24"><defs><style>.a{fill:#fff;opacity:0;}.b{fill:#9f1c34;}.c{fill:#b3b3b3;}</style></defs><g transform="translate(-0.24 -0.195)"><rect class="a" width="24" height="24" transform="translate(0.24 0.195)"/><g transform="translate(2.969 2.969)"><path class="b" d="M14.387,7.193A7.194,7.194,0,1,1,7.194,0,7.194,7.194,0,0,1,14.387,7.193Z" transform="matrix(0.952, 0.306, -0.306, 0.952, 4.406, 0)"/><path class="c" d="M4.926,0C4.664,0,4.4,0,4.139.025L0,12.754a7.272,7.272,0,0,0,1.452.928L5.86.115A7.4,7.4,0,0,0,4.926.008Zm2.9.741L3.414,14.308a7.4,7.4,0,0,0,1.721.09L9.278,1.669A7.273,7.273,0,0,0,7.826.741Z" transform="matrix(0.998, -0.07, 0.07, 0.998, 3.935, 2.179)"/></g></g></svg>