<svg xmlns="http://www.w3.org/2000/svg" width="30" height="30" viewBox="0 0 30 30"><defs><style>.a{fill:#fff;opacity:0.004;}.b{fill:#283574;}.c{fill:#bbbbbc;}.d{fill:#656666;}</style></defs><g transform="translate(-0.25 -0.423)"><rect class="a" width="30" height="30" transform="translate(0.25 0.423)"/><g transform="translate(20.983 3.356) rotate(45)"><path class="b" d="M4.47.108,2.875,0,1.4.452,0,1.473,4.568,16.421a5.987,5.987,0,0,0,2.388.08c.99-.3,1.394-.943,2.081-1.447L4.47.108Z" transform="translate(1.259 8.316)"/><path class="c" d="M1.493,0,0,.456,2.422,8.383l1.866,3.435L3.915,7.927Z" transform="translate(0.126 0.407)"/><path class="d" d="M1.565.4c0-.22-.35-.4-.782-.4S0,.178,0,.4.35.8.782.8,1.565.618,1.565.4Z" transform="translate(1.729 0.762) rotate(163.008)"/></g></g></svg>