<svg xmlns="http://www.w3.org/2000/svg" width="63" height="63" viewBox="0 0 63 63"><defs><style>.a{fill:#f4f4f5;stroke:#bbbbbc;stroke-width:0.25px;}.b{fill:#283574;}.c{stroke:none;}.d{fill:none;}</style></defs><g transform="translate(-395 -170)"><g class="a" transform="translate(395 170)"><circle class="c" cx="31.5" cy="31.5" r="31.5"/><circle class="d" cx="31.5" cy="31.5" r="31.375"/></g><g transform="translate(410.324 176.811)"><path class="b" d="M393.306,649.82l3.189.943q-3.97,14.03-7.94,28.05l-3.186-.9Z" transform="translate(-367.254 -627.732)"/><path class="b" d="M363,649.31h3.308v29.145H363Z" transform="translate(-354.414 -627.391)"/><path class="b" d="M334.242,678.469H331V649.32h3.242Z" transform="translate(-331 -627.397)"/><path class="b" d="M358.749,601.506a4,4,0,1,1-4.01-4.036A4,4,0,0,1,358.749,601.506Z" transform="translate(-334.638 -597.47)"/><path class="b" d="M336.14,637.5v-1.879H337.4a3.431,3.431,0,0,0,.6-.129.6.6,0,0,0,.149-.067,4.068,4.068,0,0,1,2.521-.566c.847.046,1.7,0,2.551,0a.8.8,0,0,1,.374.086,4.442,4.442,0,0,0,2.865.662.644.644,0,0,1,.142,0v1.879h-1.323a1.252,1.252,0,0,0-.463.109,7.979,7.979,0,0,1-1.4.661,7.092,7.092,0,0,1-1.548.033h-2.316a.761.761,0,0,1-.394-.093,4.235,4.235,0,0,0-2.852-.7A.6.6,0,0,1,336.14,637.5Z" transform="translate(-334.44 -625.308)"/><path class="b" d="M376.94,627.06l.447-1.79c.387.089.764.159,1.131.261a1.616,1.616,0,0,0,.887,0c.208-.053.427-.073.632-.139a2.188,2.188,0,0,1,1.323.03c1.019.271,2.051.509,3.073.771a1.158,1.158,0,0,1,.42.218c.331.261.625.556.953.811a1.563,1.563,0,0,0,.526.258c.407.112.824.2,1.257.294l-.447,1.793c-.5-.112-.966-.222-1.442-.331a.608.608,0,0,0-.268,0c-.43.093-.853.212-1.287.291a1.507,1.507,0,0,1-.582,0q-1.717-.427-3.427-.887a1.9,1.9,0,0,1-.463-.232,1.515,1.515,0,0,1-.284-.238,3.412,3.412,0,0,0-2.021-1.016A4.045,4.045,0,0,1,376.94,627.06Z" transform="translate(-355.637 -613.729)"/></g></g></svg>