<svg xmlns="http://www.w3.org/2000/svg" width="60" height="60.001" viewBox="0 0 60 60.001"><defs><style>.a{fill:#bbbbbc;opacity:0.25;}.b,.c{fill:#9f1c34;}.b{opacity:0.998;}.c{font-size:20px;font-family:HelveticaNeue-CondensedBold, Helvetica Neue;font-weight:700;}</style></defs><g transform="translate(-476.471 -1018)"><g transform="translate(476.471 1018)"><path class="a" d="M-1.243-36A29.95,29.95,0,0,0-30.719-11.211a30.008,30.008,0,0,0,19.239,33.4A29.9,29.9,0,0,0,24.678,9l-5.04-2.917A24.086,24.086,0,0,1-9.49,16.707a24.173,24.173,0,0,1-15.5-26.9A24.126,24.126,0,0,1-1.243-30.167Z" transform="translate(31.177 36)"/><path class="b" d="M-9.206,10.409a30.94,30.94,0,0,0,0-30.94A30.94,30.94,0,0,0-36-36v6.016A24.924,24.924,0,0,1-14.416-17.522a24.924,24.924,0,0,1,0,24.924Z" transform="translate(65.06 36)"/></g><text class="c" transform="translate(506.467 1055.729)"><tspan x="-9.6" y="0">33</tspan></text></g></svg>