<svg xmlns="http://www.w3.org/2000/svg" width="60" height="60.001" viewBox="0 0 60 60.001"><defs><style>.a,.c{fill:#197f5c;}.b{fill:#bbbbbc;opacity:0.25;}.c{font-size:19px;font-family:HelveticaNeue-CondensedBold, Helvetica Neue;font-weight:700;}</style></defs><g transform="translate(-179 -1018)"><g transform="translate(179 1018)"><path class="a" d="M-5.224-36A29.976,29.976,0,0,1,24.288-11.211a30,30,0,0,1-19.263,33.4A29.953,29.953,0,0,1-31.177,9l5.046-2.917A24.129,24.129,0,0,0,3.032,16.707,24.169,24.169,0,0,0,18.55-10.2,24.148,24.148,0,0,0-5.224-30.167Z" transform="translate(35.254 36)"/><path class="b" d="M-31.923,9.646a30.43,30.43,0,0,1,0-30.43A30.43,30.43,0,0,1-5.57-36v5.917A24.513,24.513,0,0,0-26.8-17.826a24.513,24.513,0,0,0,0,24.513Z" transform="translate(36 36)"/></g><text class="c" transform="translate(208.722 1054.342)"><tspan x="-9.12" y="0">66</tspan></text></g></svg>