<svg xmlns="http://www.w3.org/2000/svg" width="28.027" height="28.027" viewBox="0 0 28.027 28.027"><defs><style>.a{fill:#283574;}</style></defs><path class="a" d="M29.368,12.647a6.8,6.8,0,0,0-4.856-1.993h-.377A8.293,8.293,0,0,0,21.6,6.405,8.1,8.1,0,0,0,16.179,4.5a8.1,8.1,0,0,0-5.793,2.4,8.56,8.56,0,0,0-2.432,5.943,5.8,5.8,0,0,0-3.1,2.037,6.687,6.687,0,0,0-1.482,4.191c0,3.256,2.351,6.03,5.213,6.278l-1.63,2.365h0a1.143,1.143,0,0,0-.182.81,1.078,1.078,0,0,0,.4.7.934.934,0,0,0,.579.2A.993.993,0,0,0,8.6,29l2.5-3.65h2.364L9.74,30.833a1.143,1.143,0,0,0-.2.774,1.065,1.065,0,0,0,.4.715,1.027,1.027,0,0,0,.606.2,1.049,1.049,0,0,0,.9-.467l4.54-6.7h2.337l-1.617,2.358a1.118,1.118,0,0,0-.182.81,1.078,1.078,0,0,0,.4.7.934.934,0,0,0,.579.2A.993.993,0,0,0,18.355,29l2.492-3.65h2.364l-3.725,5.483a1.153,1.153,0,0,0-.2.774,1.049,1.049,0,0,0,.4.7.988.988,0,0,0,1.441-.219l4.695-6.943a6.833,6.833,0,0,0,3.913-2.519,7.987,7.987,0,0,0,1.664-4.9A7.177,7.177,0,0,0,29.368,12.647Z" transform="translate(-3.375 -4.5)"/></svg>