<svg xmlns="http://www.w3.org/2000/svg" width="24" height="24" viewBox="0 0 24 24"><defs><style>.a{fill:#fff;opacity:0;}.b{fill:#bbbbbc;}.c{fill:#197f5c;}.d{fill:#656666;}</style></defs><g transform="translate(-0.39 -0.344)"><rect class="a" width="24" height="24" transform="translate(0.389 0.344)"/><g transform="translate(4.814 0.468)"><path class="b" d="M169.592,114.246c-.549-.394-1.793.633-2.312,2.007a5.155,5.155,0,0,0-.014,3.275l2.866,1.464-.452-5.683Z" transform="translate(-166.007 -111.349)"/><path class="c" d="M6.261,71.669a5.9,5.9,0,0,0-.308-1.889.952.952,0,0,0-.749-.4c-.634,0-1.8.715-1.725,1.528l.533,6.6L4.044,78,1.888,76.764a.925.925,0,0,0-1.464.32S.1,78.336.1,78.34a1.7,1.7,0,0,0,.378,1.822l1.537,1.311c1.015.846,2.328,1.4,2.388,2.957.014.352.048.72.083,1.092l.026.277c.038.416.072.833.073,1.241l-.164,1.044-.246,1.151a2.1,2.1,0,0,0-.045.557A1.919,1.919,0,0,0,5.27,91.5a1.571,1.571,0,0,0,.591.114h6.693a1.891,1.891,0,0,0,1.69-2.378L14,88.081l-.164-1.047.007.277a2.2,2.2,0,0,1-.01-.229v-.047c.011-.657.026-1.239.026-1.239.009-.092.017-.185.024-.278q.075-.838.129-1.711.035-.562.062-1.116v-.015q.068-1.491.074-2.911.006-1.153-.024-2.255l.267-3.843c.206-.924-1.068-1.818-1.807-1.692a.968.968,0,0,0-.586.367,1.461,1.461,0,0,0-.276.6l.139-1.525a1.755,1.755,0,0,0,.01-.185,1.386,1.386,0,0,0-.762-1.318c-.686-.267-2.054.393-2.054,1.316V69.878a1.578,1.578,0,0,0-.308-.968A.954.954,0,0,0,8,68.51c-.634,0-1.8.715-1.725,1.528Z" transform="translate(0 -68.51)"/><path class="b" d="M4.33,261.244a1.919,1.919,0,0,0,1.144,1.707l6.165-6.167,2.638-2.638v-.015q.068-1.491.074-2.911L7.266,258.3Z" transform="translate(-0.205 -239.965)"/><path class="d" d="M17.973,340.87c-.007.093-.015.185-.024.278,0,0-.018.583-.028,1.238a45.132,45.132,0,0,0-9.252,0c0-.408-.034-.825-.073-1.241l-.026-.277a45.08,45.08,0,0,1,9.4,0Z" transform="translate(-4.089 -323.863)"/></g></g></svg>