<svg xmlns="http://www.w3.org/2000/svg" width="65.979" height="114.276" viewBox="0 0 65.979 114.276"><defs><style>.a{fill:#bbbbbc;opacity:0.5;}</style></defs><path class="a" d="M55.767,81.708V63.631h-40.4a27.269,27.269,0,0,1,3.481-7.667,47.556,47.556,0,0,1,7.566-9.119L38.516,34.9a77.762,77.762,0,0,0,7.718-8.474,42.471,42.471,0,0,0,5.145-8.474,40.541,40.541,0,0,0,2.875-9.119,54.725,54.725,0,0,0,.908-10.249q0-15.011-7.869-23.081T23.08-32.568q-17.251,0-25.272,8.555T-10.212.52V4.878H10.671q0-4.519.378-8.555a24.153,24.153,0,0,1,1.665-7.1,11.484,11.484,0,0,1,3.632-4.842A10.428,10.428,0,0,1,22.778-17.4q10.593,0,10.593,14.2a70.557,70.557,0,0,1-.378,7.748A22.878,22.878,0,0,1,31.4,10.85,26.793,26.793,0,0,1,28,16.661a50.442,50.442,0,0,1-5.826,6.295L13.4,31.672A118.472,118.472,0,0,0,3.029,43.213a68.3,68.3,0,0,0-7.415,11.7A54.351,54.351,0,0,0-8.774,67.5a66.837,66.837,0,0,0-1.438,14.2Z" transform="translate(10.212 32.568)"/></svg>